<svg version="1" xmlns="http://www.w3.org/2000/svg" width="875pt" height="875pt" viewBox="0 0 875.000000 875.000000"><path d="M594.5.6c-1.6.2-7.3.9-12.5 1.5-32.6 3.7-69.6 16.5-98.9 34.1-12.1 7.3-29.7 20.8-42.8 33-38.7 35.6-64.3 78.3-75.6 126.3-1.4 6-8.5 39.6-15.8 74.5-7.2 34.9-13.6 64-14.3 64.6-.6.6-28.8 6.8-62.6 13.8-91.5 19-98.2 20.8-123.9 33.2-24.6 11.8-44.2 25.4-64.6 44.5-47.6 44.8-72.6 92.2-81.7 155.4-2 14-1.7 58.1.5 72.5 7.3 46.7 22.4 82.5 50.6 119.5 9 11.9 31.8 35 45.1 45.7 38.2 30.8 81.1 48.6 131 54.4 11.3 1.3 19.5 1.5 37 1.1 30.9-.8 49.4-3.9 76.5-12.8 63.3-21 122.2-73.7 151.9-136 12.1-25.3 13.2-29.7 32.9-122.3l13.3-62.9 27.5-5.9c15.1-3.2 47.8-10.1 72.7-15.3 46.7-9.9 60.1-13.7 80.2-22.5 27.7-12.2 53.7-30.4 77.5-54.4 42.1-42.4 65.4-87.9 74.2-144.6 2.2-14.5 2.5-59.3.5-74-5.6-39.2-19.1-75.8-39.4-106.1-11.5-17.1-18.9-26.1-34.2-41.4-42.1-42-87-65-144.6-74C645 .9 601.9-.4 594.5.6zm5388.5 8937.3c15.6 3.3 31 13.9 40.3 28 7.9 11.7 9.7 18.3 9.7 35-.1 11.9-.4 14.9-2.3 19.9-3.5 9.4-8.1 16.4-16.7 25.1-13 13.1-24.3 17.8-43 17.9-12.5.1-19.1-1.2-28.5-5.8-3.6-1.7-6.8-3.2-7.2-3.4-.4-.2-.2 1.4.4 3.5.6 2.1.8 6.7.4 10.3-.6 6.3-44.8 214.6-45.7 215.3-1.3 1-211.5 45.1-216.7 45.4-3.4.3-7.6 0-9.2-.6-3.5-1.2-3.7-.7-1 3.7 8.3 13.5 9.9 36 4 53-4.8 13.7-18.2 28.2-32.5 35.1-9.7 4.8-15.8 6.1-27.5 6.1-11.8 0-17.8-1.3-28-6.3-15.5-7.6-28.6-23.2-33.6-40.2-2.1-7.4-2.4-23.7-.5-31.5 5.5-22.8 24.2-41.8 46.6-47.5 13.5-3.4 33.7-.9 45.3 5.6 3 1.7 5.6 2.9 5.8 2.7.2-.2-.1-2.1-.7-4.1-.6-2.4-.6-6.2.1-11.9.6-4.6 10.7-54.6 22.4-111.3l21.3-103 104.9-21.7c57.7-11.9 107.6-21.9 110.9-22.3 3.3-.4 7.9-.2 10.3.3 2.4.6 4.1.7 4 .4-8.3-15.6-10.2-23.2-9.6-38.2.4-9.3 1-12.8 3.1-18.4 11.7-30.2 42.5-47.5 73.2-41.1z"/></svg>